<svg width="177" height="25" viewBox="0 0 177 25" fill="none" xmlns="http://www.w3.org/2000/svg">
<path d="M16.8125 6.60899L13.3304 3.12685C12.9174 2.7139 12.0915 2.36792 11.5 2.36792H1.50002C0.9085 2.36792 0.428589 2.84783 0.428589 3.43935V21.2965C0.428589 21.888 0.9085 22.3679 1.50002 22.3679H16.5C17.0915 22.3679 17.5714 21.888 17.5714 21.2965V8.43935C17.5714 7.84783 17.2255 7.02194 16.8125 6.60899ZM11.8572 3.88578C12.0469 3.95274 12.2366 4.05319 12.3148 4.13131L15.8081 7.62462C15.8862 7.70274 15.9866 7.89247 16.0536 8.08221H11.8572V3.88578ZM16.1429 20.9394H1.85716V3.79649H10.4286V8.43935C10.4286 9.03087 10.9085 9.51078 11.5 9.51078H16.1429V20.9394ZM4.7143 11.2965V12.0108C4.7143 12.2117 4.87055 12.3679 5.07145 12.3679H12.9286C13.1295 12.3679 13.2857 12.2117 13.2857 12.0108V11.2965C13.2857 11.0956 13.1295 10.9393 12.9286 10.9393H5.07145C4.87055 10.9393 4.7143 11.0956 4.7143 11.2965ZM12.9286 13.7965H5.07145C4.87055 13.7965 4.7143 13.9527 4.7143 14.1536V14.8679C4.7143 15.0688 4.87055 15.2251 5.07145 15.2251H12.9286C13.1295 15.2251 13.2857 15.0688 13.2857 14.8679V14.1536C13.2857 13.9527 13.1295 13.7965 12.9286 13.7965ZM12.9286 16.6536H5.07145C4.87055 16.6536 4.7143 16.8099 4.7143 17.0108V17.7251C4.7143 17.926 4.87055 18.0822 5.07145 18.0822H12.9286C13.1295 18.0822 13.2857 17.926 13.2857 17.7251V17.0108C13.2857 16.8099 13.1295 16.6536 12.9286 16.6536Z" fill="#272733"/>
<path d="M37.3964 18.3679H35.6339V8.94042H30.6164V18.3679H28.8539V7.56792H37.3964V18.3679ZM41.7125 14.4604V18.3679H39.9575V7.56792H43.3175C44.0225 7.56792 44.6325 7.65042 45.1475 7.81542C45.6675 7.98042 46.095 8.21292 46.43 8.51292C46.77 8.80792 47.0225 9.16542 47.1875 9.58542C47.3525 10.0004 47.435 10.4604 47.435 10.9654C47.435 11.4804 47.3475 11.9529 47.1725 12.3829C46.9975 12.8079 46.7375 13.1754 46.3925 13.4854C46.0475 13.7904 45.6175 14.0304 45.1025 14.2054C44.5925 14.3754 43.9975 14.4604 43.3175 14.4604H41.7125ZM41.7125 13.0729H43.3175C43.7075 13.0729 44.05 13.0229 44.345 12.9229C44.645 12.8229 44.8925 12.6829 45.0875 12.5029C45.2875 12.3179 45.4375 12.0954 45.5375 11.8354C45.6375 11.5754 45.6875 11.2854 45.6875 10.9654C45.6875 10.6504 45.6375 10.3679 45.5375 10.1179C45.4425 9.86792 45.2975 9.65542 45.1025 9.48042C44.9075 9.30542 44.66 9.17292 44.36 9.08292C44.065 8.98792 43.7175 8.94042 43.3175 8.94042H41.7125V13.0729ZM55.9677 8.11542C56.0077 8.05042 56.0527 7.98542 56.1027 7.92042C56.1577 7.85542 56.2177 7.79792 56.2827 7.74792C56.3527 7.69292 56.4252 7.65042 56.5002 7.62042C56.5752 7.58542 56.6552 7.56792 56.7402 7.56792H58.0527V18.3679H56.2977V11.1979C56.2977 10.9579 56.3027 10.7079 56.3127 10.4479C56.3277 10.1879 56.3552 9.90792 56.3952 9.60792C56.3002 9.86792 56.1977 10.1104 56.0877 10.3354C55.9777 10.5554 55.8727 10.7504 55.7727 10.9204L51.1977 17.8204C51.1577 17.8854 51.1102 17.9504 51.0552 18.0154C51.0052 18.0804 50.9452 18.1404 50.8752 18.1954C50.8102 18.2454 50.7402 18.2879 50.6652 18.3229C50.5902 18.3529 50.5102 18.3679 50.4252 18.3679H49.1127V7.56792H50.8752V14.7304C50.8752 14.9704 50.8677 15.2229 50.8527 15.4879C50.8427 15.7479 50.8177 16.0229 50.7777 16.3129C50.8727 16.0579 50.9727 15.8204 51.0777 15.6004C51.1877 15.3804 51.2927 15.1854 51.3927 15.0154L55.9677 8.11542ZM62.3814 12.1879H63.4389C63.6589 12.1879 63.8439 12.1529 63.9939 12.0829C64.1439 12.0129 64.2914 11.8779 64.4364 11.6779L67.0239 8.04792C67.1089 7.90792 67.2114 7.79292 67.3314 7.70292C67.4564 7.61292 67.6039 7.56792 67.7739 7.56792H69.2589L66.1689 11.9479C66.0439 12.1329 65.9014 12.2854 65.7414 12.4054C65.5814 12.5254 65.4039 12.6204 65.2089 12.6904C65.4889 12.7654 65.7264 12.8879 65.9214 13.0579C66.1214 13.2279 66.3089 13.4629 66.4839 13.7629L69.5364 18.3679H67.9539C67.7839 18.3679 67.6414 18.3229 67.5264 18.2329C67.4114 18.1429 67.3039 18.0104 67.2039 17.8354L64.6464 14.0629C64.5814 13.9629 64.5164 13.8804 64.4514 13.8154C64.3864 13.7454 64.3139 13.6904 64.2339 13.6504C64.1539 13.6054 64.0639 13.5754 63.9639 13.5604C63.8639 13.5404 63.7514 13.5304 63.6264 13.5304H62.3814V18.3679H60.6264V7.56792H62.3814V12.1879ZM72.6353 14.4604V18.3679H70.8803V7.56792H74.2403C74.9453 7.56792 75.5553 7.65042 76.0703 7.81542C76.5903 7.98042 77.0178 8.21292 77.3528 8.51292C77.6928 8.80792 77.9453 9.16542 78.1103 9.58542C78.2753 10.0004 78.3578 10.4604 78.3578 10.9654C78.3578 11.4804 78.2703 11.9529 78.0953 12.3829C77.9203 12.8079 77.6603 13.1754 77.3153 13.4854C76.9703 13.7904 76.5403 14.0304 76.0253 14.2054C75.5153 14.3754 74.9203 14.4604 74.2403 14.4604H72.6353ZM72.6353 13.0729H74.2403C74.6303 13.0729 74.9728 13.0229 75.2678 12.9229C75.5678 12.8229 75.8153 12.6829 76.0103 12.5029C76.2103 12.3179 76.3603 12.0954 76.4603 11.8354C76.5603 11.5754 76.6103 11.2854 76.6103 10.9654C76.6103 10.6504 76.5603 10.3679 76.4603 10.1179C76.3653 9.86792 76.2203 9.65542 76.0253 9.48042C75.8303 9.30542 75.5828 9.17292 75.2828 9.08292C74.9878 8.98792 74.6403 8.94042 74.2403 8.94042H72.6353V13.0729ZM86.7706 7.56792V8.98542H81.7981V12.2404H85.7731V13.6129H81.7981V16.9504H86.7781L86.7706 18.3679H80.0356V7.56792H86.7706ZM97.2207 18.3679H95.4582V8.94042H90.4407V18.3679H88.6782V7.56792H97.2207V18.3679ZM106.637 8.11542C106.677 8.05042 106.722 7.98542 106.772 7.92042C106.827 7.85542 106.887 7.79792 106.952 7.74792C107.022 7.69292 107.094 7.65042 107.169 7.62042C107.244 7.58542 107.324 7.56792 107.409 7.56792H108.722V18.3679H106.967V11.1979C106.967 10.9579 106.972 10.7079 106.982 10.4479C106.997 10.1879 107.024 9.90792 107.064 9.60792C106.969 9.86792 106.867 10.1104 106.757 10.3354C106.647 10.5554 106.542 10.7504 106.442 10.9204L101.867 17.8204C101.827 17.8854 101.779 17.9504 101.724 18.0154C101.674 18.0804 101.614 18.1404 101.544 18.1954C101.479 18.2454 101.409 18.2879 101.334 18.3229C101.259 18.3529 101.179 18.3679 101.094 18.3679H99.7817V7.56792H101.544V14.7304C101.544 14.9704 101.537 15.2229 101.522 15.4879C101.512 15.7479 101.487 16.0229 101.447 16.3129C101.542 16.0579 101.642 15.8204 101.747 15.6004C101.857 15.3804 101.962 15.1854 102.062 15.0154L106.637 8.11542ZM118.728 7.56792V9.03042H115.36V18.3679H113.613V9.03042H110.238V7.56792H118.728ZM121.986 7.56792V12.1129H123.906C124.586 12.1129 125.168 12.1879 125.653 12.3379C126.143 12.4879 126.546 12.6954 126.861 12.9604C127.176 13.2204 127.406 13.5304 127.551 13.8904C127.701 14.2504 127.776 14.6379 127.776 15.0529C127.776 15.5579 127.688 16.0154 127.513 16.4254C127.343 16.8304 127.093 17.1779 126.763 17.4679C126.433 17.7579 126.026 17.9804 125.541 18.1354C125.061 18.2904 124.513 18.3679 123.898 18.3679H120.231V7.56792H121.986ZM121.986 13.5004V16.9804H123.898C124.293 16.9804 124.626 16.9379 124.896 16.8529C125.171 16.7629 125.393 16.6404 125.563 16.4854C125.733 16.3254 125.856 16.1404 125.931 15.9304C126.011 15.7154 126.051 15.4829 126.051 15.2329C126.051 14.9629 126.013 14.7204 125.938 14.5054C125.863 14.2904 125.741 14.1104 125.571 13.9654C125.401 13.8154 125.178 13.7004 124.903 13.6204C124.633 13.5404 124.301 13.5004 123.906 13.5004H121.986ZM138.67 8.37042C139.35 8.38542 139.973 8.51042 140.538 8.74542C141.103 8.98042 141.588 9.29292 141.993 9.68292C142.398 10.0729 142.713 10.5279 142.938 11.0479C143.163 11.5679 143.275 12.1229 143.275 12.7129C143.275 13.3029 143.163 13.8579 142.938 14.3779C142.713 14.8979 142.398 15.3554 141.993 15.7504C141.588 16.1404 141.103 16.4529 140.538 16.6879C139.973 16.9229 139.35 17.0504 138.67 17.0704V18.3679H137.013V17.0704C136.333 17.0504 135.708 16.9229 135.138 16.6879C134.573 16.4529 134.085 16.1404 133.675 15.7504C133.27 15.3554 132.955 14.8979 132.73 14.3779C132.505 13.8579 132.393 13.3029 132.393 12.7129C132.393 12.1229 132.505 11.5679 132.73 11.0479C132.96 10.5279 133.28 10.0729 133.69 9.68292C134.1 9.29292 134.588 8.98042 135.153 8.74542C135.718 8.51042 136.338 8.38542 137.013 8.37042V7.09542H138.67V8.37042ZM134.148 12.7129C134.148 13.1229 134.215 13.5079 134.35 13.8679C134.49 14.2279 134.685 14.5429 134.935 14.8129C135.185 15.0779 135.485 15.2904 135.835 15.4504C136.19 15.6104 136.583 15.6929 137.013 15.6979V9.72792C136.583 9.73792 136.19 9.82292 135.835 9.98292C135.485 10.1379 135.185 10.3504 134.935 10.6204C134.685 10.8904 134.49 11.2054 134.35 11.5654C134.215 11.9254 134.148 12.3079 134.148 12.7129ZM141.535 12.7129C141.535 12.3079 141.465 11.9254 141.325 11.5654C141.185 11.2054 140.99 10.8904 140.74 10.6204C140.49 10.3504 140.188 10.1379 139.833 9.98292C139.483 9.82292 139.095 9.73792 138.67 9.72792V15.6979C139.095 15.6929 139.483 15.6104 139.833 15.4504C140.188 15.2904 140.49 15.0779 140.74 14.8129C140.99 14.5429 141.185 14.2279 141.325 13.8679C141.465 13.5079 141.535 13.1229 141.535 12.7129ZM153.694 18.3679H152.337C152.187 18.3679 152.062 18.3304 151.962 18.2554C151.867 18.1754 151.797 18.0779 151.752 17.9629L150.852 15.5779H146.194L145.294 17.9629C145.254 18.0629 145.184 18.1554 145.084 18.2404C144.984 18.3254 144.862 18.3679 144.717 18.3679H143.352L147.634 7.56792H149.412L153.694 18.3679ZM146.667 14.3179H150.372L148.887 10.3729C148.832 10.2279 148.772 10.0554 148.707 9.85542C148.642 9.65542 148.579 9.44042 148.519 9.21042C148.464 9.44542 148.404 9.66292 148.339 9.86292C148.274 10.0579 148.214 10.2304 148.159 10.3804L146.667 14.3179ZM161.788 8.11542C161.828 8.05042 161.873 7.98542 161.923 7.92042C161.978 7.85542 162.038 7.79792 162.103 7.74792C162.173 7.69292 162.246 7.65042 162.321 7.62042C162.396 7.58542 162.476 7.56792 162.561 7.56792H163.873V18.3679H162.118V11.1979C162.118 10.9579 162.123 10.7079 162.133 10.4479C162.148 10.1879 162.176 9.90792 162.216 9.60792C162.121 9.86792 162.018 10.1104 161.908 10.3354C161.798 10.5554 161.693 10.7504 161.593 10.9204L157.018 17.8204C156.978 17.8854 156.931 17.9504 156.876 18.0154C156.826 18.0804 156.766 18.1404 156.696 18.1954C156.631 18.2454 156.561 18.2879 156.486 18.3229C156.411 18.3529 156.331 18.3679 156.246 18.3679H154.933V7.56792H156.696V14.7304C156.696 14.9704 156.688 15.2229 156.673 15.4879C156.663 15.7479 156.638 16.0229 156.598 16.3129C156.693 16.0579 156.793 15.8204 156.898 15.6004C157.008 15.3804 157.113 15.1854 157.213 15.0154L161.788 8.11542ZM159.471 6.08292C159.666 6.08292 159.828 6.06292 159.958 6.02292C160.093 5.98292 160.201 5.91792 160.281 5.82792C160.361 5.73292 160.418 5.60792 160.453 5.45292C160.488 5.29792 160.506 5.10292 160.506 4.86792H161.451C161.566 4.86792 161.651 4.91792 161.706 5.01792C161.761 5.11792 161.788 5.22542 161.788 5.34042C161.788 5.59042 161.733 5.81292 161.623 6.00792C161.518 6.20292 161.366 6.36792 161.166 6.50292C160.966 6.63292 160.721 6.73292 160.431 6.80292C160.146 6.86792 159.826 6.90042 159.471 6.90042C159.116 6.90042 158.793 6.86792 158.503 6.80292C158.218 6.73292 157.976 6.63292 157.776 6.50292C157.576 6.36792 157.421 6.20292 157.311 6.00792C157.206 5.81292 157.153 5.59042 157.153 5.34042C157.153 5.22542 157.181 5.11792 157.236 5.01792C157.291 4.91792 157.376 4.86792 157.491 4.86792H158.436C158.436 5.10292 158.453 5.29792 158.488 5.45292C158.523 5.60792 158.581 5.73292 158.661 5.82792C158.741 5.91792 158.846 5.98292 158.976 6.02292C159.111 6.06292 159.276 6.08292 159.471 6.08292ZM174.907 7.56792V18.3679H173.144V8.94042H169.904C169.834 10.3104 169.737 11.4979 169.612 12.5029C169.487 13.5029 169.337 14.3554 169.162 15.0604C168.992 15.7654 168.797 16.3404 168.577 16.7854C168.357 17.2304 168.117 17.5779 167.857 17.8279C167.597 18.0779 167.317 18.2479 167.017 18.3379C166.717 18.4279 166.399 18.4729 166.064 18.4729C165.434 18.4729 165.119 18.3604 165.119 18.1354V17.0254H165.674C165.859 17.0254 166.044 16.9929 166.229 16.9279C166.419 16.8579 166.602 16.7129 166.777 16.4929C166.952 16.2729 167.119 15.9554 167.279 15.5404C167.439 15.1204 167.584 14.5604 167.714 13.8604C167.844 13.1604 167.954 12.2979 168.044 11.2729C168.139 10.2429 168.209 9.00792 168.254 7.56792H174.907Z" fill="#272733"/>
</svg>
